<?xml version="1.0" encoding="utf-8"?>
<!-- Generator: Adobe Illustrator 15.1.0, SVG Export Plug-In . SVG Version: 6.00 Build 0)  -->
<!DOCTYPE svg PUBLIC "-//W3C//DTD SVG 1.0//EN" "http://www.w3.org/TR/2001/REC-SVG-20010904/DTD/svg10.dtd">
<svg version="1.0" id="Layer_1" xmlns="http://www.w3.org/2000/svg" xmlns:xlink="http://www.w3.org/1999/xlink" x="0px" y="0px"
	 width="360.069px" height="260.011px" viewBox="0 0 360.069 260.011" enable-background="new 0 0 360.069 260.011"
	 xml:space="preserve">
<g>
	<g>
		<path fill="#73CDDD" d="M273.23,50.254c0,0,26.639-21.938,48.984-4.806c19.371,14.842,6.92,44.043,35.216,40.675
			c-2.724,7.853-48.831,22.709-66.178,10.38C273.904,84.171,273.23,50.254,273.23,50.254z"/>
		<path d="M310.508,103.015c-8.759,0-15.58-1.699-20.295-5.046c-17.882-12.709-18.751-46.254-18.78-47.679l-0.015-0.87l0.674-0.554
			c0.576-0.479,14.457-11.756,30.962-11.756c7.453,0,14.276,2.324,20.254,6.912c8.547,6.556,11.2,15.609,13.53,23.601
			c3.188,10.92,5.517,18.395,20.38,16.718l2.85-0.344l-0.941,2.715C356.586,94.024,329.78,103.015,310.508,103.015z M275.069,51.11
			c0.253,5.348,2.344,33.349,17.221,43.925c4.042,2.871,10.33,4.386,18.218,4.386c16.633,0,35.651-6.512,42.584-11.235
			c-14.007-0.048-16.771-9.524-19.707-19.551c-2.286-7.832-4.645-15.924-12.266-21.762c-5.335-4.091-11.412-6.168-18.065-6.168
			C289.807,40.704,277.989,48.914,275.069,51.11z"/>
	</g>
	<g>
		<path fill="#73CDDD" d="M273.89,56.908c0,0,18.007-11.503,23.58-6.239c5.585,5.248,3.579,9.2,6.779,11.833
			c3.2,2.618,9.207,6.23,4.407,11.486c-4.813,5.271-30.793,6.95-30.793,6.95L273.89,56.908z"/>
		<path d="M276.36,82.832l-4.436-26.801l0.997-0.638c0.505-0.323,12.462-7.896,20.338-7.896c2.3,0,4.125,0.625,5.445,1.867
			c3.509,3.292,4.365,6.268,4.997,8.442c0.477,1.649,0.771,2.547,1.683,3.306l1.067,0.835c2.444,1.909,5.488,4.273,5.768,7.67
			c0.17,1.903-0.588,3.776-2.23,5.586c-5.165,5.644-29.28,7.347-32.016,7.523L276.36,82.832z M275.854,57.805l3.509,21.223
			c9.897-0.765,24.983-2.991,27.959-6.253c0.968-1.046,1.391-1.979,1.32-2.85c-0.155-1.833-2.512-3.671-4.408-5.145l-1.122-0.891
			c-1.826-1.502-2.358-3.327-2.864-5.088c-0.603-2.062-1.221-4.203-4.015-6.821c-0.618-0.597-1.627-0.891-2.974-0.891
			C287.602,51.09,278.816,56.045,275.854,57.805z"/>
	</g>
	<path fill="#FFFFFF" d="M324.039,61.076c-1.698-0.962-2.918-1.333-3.874-1.88c0.717-1.838,1.208-4.156-0.462-2.773
		c-0.547,0.444-0.954,0.85-1.32,1.215c-1.065-1.024-2.315-0.421-2.441,1.032c0,0-0.703,0.827-1.25,1.606
		c-1.656,0.647-1.177,1.847,0.605,2.232c0,0,3.564,3.009,3.171,1.67c-0.294-1.024-0.07-1.741,0.394-2.547
		C320.699,62.128,326.679,62.537,324.039,61.076z"/>
	<path fill="#FFFFFF" d="M312.361,87.645c-1.727-0.96-2.918-1.325-3.901-1.88c0.73-1.833,1.221-4.154-0.435-2.771
		c-0.576,0.441-0.982,0.848-1.347,1.221c-1.067-1.026-2.303-0.429-2.429,1.018c0,0-0.703,0.841-1.25,1.621
		c-1.668,0.639-1.18,1.845,0.618,2.224c0,0,3.565,3.018,3.144,1.664c-0.294-1.011-0.07-1.727,0.421-2.541
		C309.021,88.697,314.958,89.112,312.361,87.645z"/>
	<path fill="#FFFFFF" d="M331.815,80.867c-1.712-0.97-2.933-1.327-3.901-1.882c0.729-1.832,1.221-4.153-0.45-2.779
		c-0.562,0.45-0.956,0.856-1.333,1.235c-1.067-1.039-2.303-0.427-2.429,1.011c0,0-0.717,0.842-1.25,1.627
		c-1.67,0.632-1.179,1.84,0.618,2.217c0,0,3.565,3.026,3.159,1.665c-0.309-1.003-0.07-1.72,0.406-2.541
		C328.474,81.92,334.412,82.332,331.815,80.867z"/>
	<g>
		<path fill="#FFFFFF" d="M132.791,181.474v10.4c0,0,1.094,10.562,7.453,10.562c6.342,0,9.613-2.344,9.795-6.541
			c0.197-4.188,0.912-20.792,0.912-20.792h-18.16V181.474z"/>
		<path d="M140.244,204.233c-7.888,0-9.188-11.677-9.244-12.177l-0.006-18.751h21.831l-0.077,1.874c0,0-0.715,16.612-0.912,20.801
			C151.703,199.06,150.018,204.233,140.244,204.233z M134.585,191.874c0.015,0,1.094,8.765,5.658,8.765c7.789,0,7.951-3.627,8-4.821
			c0.153-3.327,0.638-14.457,0.833-18.919h-14.492V191.874L134.585,191.874z"/>
	</g>
	<g>
		<path fill="#FFFFFF" d="M168.033,181.474v10.4c0,0-1.094,10.562-7.468,10.562c-6.33,0-9.615-2.344-9.797-6.541
			c-0.183-4.188-0.912-20.792-0.912-20.792h18.177V181.474z"/>
		<path d="M160.565,204.233c-9.774,0-11.459-5.173-11.592-8.26l-0.997-22.668h21.854v18.568
			C169.766,192.556,168.468,204.233,160.565,204.233z M151.73,176.899l0.835,18.919c0.05,1.194,0.211,4.821,8,4.821
			c4.597,0,5.671-8.862,5.677-8.954l-0.006-14.786H151.73z"/>
	</g>
	<g>
		<path fill="#FFFFFF" d="M150.698,4.471c-16.547,0.294-71.215,6.231-88.759,20.267C44.406,38.76,7.437,62.802,2.862,106.012
			c-1.643,15.271-2.934,34.345,8.505,44.325c11.44,9.972,57.996,35.531,78.587,27.734c20.575-7.783,27.312-30.857,34.414-25.56
			c7.088,5.312,7.762,14.971,7.762,14.971h36.563c0,0,0.673-9.659,7.762-14.971c7.103-5.297,13.839,17.777,34.416,25.56
			c20.577,7.797,67.146-17.762,78.585-27.734c11.44-9.979,10.147-29.054,8.506-44.325c-4.577-43.209-41.545-67.252-59.076-81.274
			C221.341,10.702,167.219,4.168,150.698,4.471z"/>
		<path d="M220.006,181.326L220.006,181.326c-3.733,0-7.018-0.533-9.768-1.579c-11.215-4.239-18.442-12.807-23.733-19.06
			c-3.103-3.685-6.036-7.159-7.889-7.159c-0.224,0-0.576,0.042-1.088,0.421c-6.315,4.738-7.039,13.573-7.045,13.656l-0.12,1.67
			h-39.902l-0.12-1.67c-0.008-0.083-0.729-8.918-7.053-13.656c-0.506-0.379-0.856-0.421-1.08-0.421
			c-1.853,0-4.788,3.474-7.897,7.159c-5.277,6.253-12.506,14.821-23.719,19.06c-2.759,1.046-6.05,1.579-9.783,1.579
			c-23.792,0-60.761-21.039-70.621-29.636c-11.846-10.336-10.919-29.095-9.116-45.869C5.269,66.22,36.385,42.225,54.977,27.889
			c2.112-1.628,4.071-3.145,5.838-4.555c18.533-14.829,75.414-20.401,89.85-20.661l1.177-0.007c17.167,0,70.27,6.352,88.167,20.668
			c1.768,1.41,3.732,2.926,5.838,4.555c18.598,14.336,49.699,38.331,53.896,77.932c1.812,16.773,2.738,35.533-9.109,45.869
			C280.767,160.287,243.812,181.326,220.006,181.326z M178.616,149.935c3.523,0,6.512,3.538,10.639,8.436
			c5.026,5.953,11.903,14.106,22.248,18.023c2.356,0.883,5.207,1.339,8.504,1.339c21.953,0,58.193-19.972,68.272-28.751
			c10.539-9.2,9.6-26.906,7.9-42.781c-4.042-38.071-34.386-61.484-52.522-75.47c-2.132-1.635-4.112-3.165-5.895-4.589
			C221.37,13.025,170.11,6.259,151.842,6.259l-1.106,0.008C132.438,6.59,79.51,12.983,63.06,26.142
			c-1.782,1.424-3.76,2.954-5.886,4.589C39.032,44.716,8.68,68.129,4.651,106.2c-1.712,15.875-2.646,33.581,7.895,42.781
			c10.078,8.78,46.31,28.751,68.263,28.751c3.297,0,6.16-0.456,8.506-1.339c10.342-3.917,17.228-12.071,22.251-18.023
			c4.127-4.897,7.118-8.436,10.641-8.436c1.136,0,2.224,0.379,3.233,1.138c5.897,4.415,7.721,11.418,8.262,14.612h33.418
			c0.539-3.194,2.365-10.197,8.253-14.612C176.392,150.314,177.48,149.935,178.616,149.935z"/>
	</g>
	<path d="M32.771,55.363c0,0-36.309,52.375-14.371,76.376c21.938,23.992,56.031,33.025,81.673,8.715
		c25.643-24.31,37.798-55.469,18.218-79.161C98.725,37.601,52.015,33.86,32.771,55.363z"/>
	<path d="M153.983,136.904c3.018,1.671,8.085,8.112,15.524,0c7.412-8.1-18.233-20.253-18.233-20.253c-2.259-1.15-3.776,0-3.776,0
		s-25.642,12.154-18.218,20.253c7.412,8.112,12.156,0.939,15.511,0C144.791,136.904,148.58,133.907,153.983,136.904z"/>
	<g>
		<g>
			<path fill="#FFFFFF" d="M103.09,213.551c-1.712,3.173-4.842,2.752-6.68,3.214c-1.853,0.464,0.294,5.433,1.515,7.538
				c1.194,2.106,1.753,3.706,3.776,3.509c2.035-0.197,7.074-4.956,7.074-4.956s0.814-0.688,2.3-0.153l73.717,26.289
				c0,0,1.009,0.253,1.909,0.968c0,0,2.188,1.474,2.721,3.13c0.535,1.656,4.858,6.765,7.806,4.591
				c2.933-2.162,5.445-4.268,5.192-5.559c-0.238-1.265-3.704-3.341-4.083-4.239"/>
			<path d="M195.628,260.011c-0.535,0-1.082-0.085-1.644-0.268c-2.891-0.941-5.683-4.294-6.274-6.105
				c-0.238-0.744-1.43-1.797-2.006-2.189c-0.688-0.533-1.361-0.715-1.361-0.715l-73.87-26.333c-0.456-0.183-0.653-0.056-0.673-0.071
				c-1.438,1.391-5.536,5.039-7.924,5.265c-0.182,0.027-0.35,0.027-0.512,0.027c-2.576,0-3.683-2.035-4.589-3.677l-0.415-0.759
				c-0.338-0.574-3.341-5.894-2.203-8.603c0.344-0.8,0.982-1.347,1.817-1.557c0.456-0.114,0.989-0.197,1.565-0.268
				c1.909-0.238,3.13-0.505,3.971-2.064l3.159,1.714c-1.776,3.283-4.842,3.677-6.674,3.915c-0.176,0.027-0.338,0.042-0.498,0.071
				c0.145,1.038,0.939,3.214,1.978,5.009l0.456,0.814c1.032,1.882,1.158,1.826,1.594,1.812c0.814-0.141,3.629-2.232,6.015-4.479
				c0.806-0.686,2.315-1.206,4.139-0.533l73.716,26.274l0,0c0.027,0,1.277,0.353,2.427,1.265c0.338,0.209,2.626,1.838,3.314,3.985
				c0.209,0.674,2.174,3.2,3.957,3.776c0.605,0.209,0.941,0.015,1.067-0.085c3.088-2.273,4.07-3.354,4.379-3.832
				c-0.379-0.436-1.194-1.109-1.67-1.501c-1.194-0.982-1.868-1.573-2.189-2.317l3.312-1.403c0.071,0.042,0.729,0.589,1.165,0.956
				c1.417,1.179,2.765,2.286,3.03,3.648c0.422,2.203-1.739,4.282-5.895,7.341C197.493,259.716,196.596,260.011,195.628,260.011z"/>
		</g>
		<g>
			<path fill="#FFFFFF" d="M102.781,219.166c-0.253-5.362-5.627-7.033-5.88-8.309c-0.241-1.277,2.259-3.395,5.207-5.557
				c2.935-2.162,7.271,2.947,7.803,4.603c0.52,1.656,2.723,3.144,2.723,3.144s-0.28,0.168,1.277,0.729l74.347,26.527
				c1.488,0.519,2.288-0.167,2.288-0.167s5.053-4.745,7.074-4.941c2.035-0.211,2.597,1.374,3.791,3.495
				c1.206,2.105,3.354,7.074,1.515,7.538c-1.853,0.462-4.983,0.042-6.68,3.212"/>
			<path d="M197.831,250.284l-3.173-1.685c1.77-3.312,4.73-3.677,6.682-3.93c0.168-0.029,0.324-0.042,0.491-0.071
				c-0.155-1.038-0.941-3.214-1.979-5.011l-0.436-0.8c-1.011-1.865-1.136-1.795-1.614-1.809c-0.815,0.141-3.633,2.232-6.021,4.462
				c-0.812,0.688-2.259,1.18-4.112,0.562l-74.361-26.527c-0.715-0.265-1.615-0.589-2.112-1.248c-0.835-0.632-2.456-2.05-2.997-3.791
				c-0.218-0.659-2.174-3.2-3.965-3.774c-0.659-0.211-0.927,0-1.059,0.083c-2.829,2.077-3.889,3.159-4.289,3.691
				c0.174,0.141,0.365,0.282,0.533,0.408c1.727,1.304,4.941,3.718,5.159,8.239l-3.594,0.168c-0.133-2.835-2.126-4.324-3.727-5.53
				c-1.024-0.773-1.909-1.447-2.118-2.512c-0.415-2.232,1.853-4.379,5.909-7.355c1.227-0.927,2.709-1.109,4.289-0.603
				c2.897,0.926,5.704,4.294,6.288,6.105c0.236,0.757,1.43,1.81,2.013,2.204l0.667,0.45c0.07,0.027,0.139,0.056,0.217,0.083
				l74.34,26.513c0.421,0.155,0.659,0.085,0.645,0.07c1.461-1.403,5.559-5.039,7.944-5.262c2.918-0.464,4.168,1.894,5.124,3.662
				l0.406,0.729c0.338,0.591,3.312,5.938,2.189,8.605c-0.336,0.8-0.982,1.347-1.81,1.557c-0.462,0.114-0.997,0.197-1.573,0.268
				C199.881,248.473,198.658,248.74,197.831,250.284z"/>
		</g>
	</g>
	<g>
		<g>
			<path fill="#FFFFFF" d="M115.203,241.819c0.617,3.538-2.119,5.138-3.283,6.626c-1.179,1.488,3.565,4.097,5.824,5.024
				c2.247,0.926,3.664,1.824,5.136,0.42c1.476-1.403,2.541-8.238,2.541-8.238s0.211-1.053,1.712-1.544l74.32-24.577
				c0,0,0.941-0.421,2.077-0.406c0,0,2.653-0.183,4.085,0.8s8,2.359,8.983-1.179c0.997-3.509,1.656-6.709,0.673-7.58
				c-0.968-0.841-4.968-0.365-5.824-0.841"/>
			<path d="M121.246,256.402c-1.214,0-2.388-0.504-3.417-0.939l-0.773-0.338c-0.638-0.253-6.288-2.653-7.024-5.459
				c-0.218-0.844-0.05-1.671,0.477-2.33c0.288-0.367,0.659-0.759,1.067-1.167c1.354-1.36,2.162-2.315,1.859-4.042l3.538-0.618
				c0.645,3.691-1.544,5.882-2.85,7.2c-0.12,0.112-0.232,0.226-0.344,0.338c0.765,0.744,2.724,1.965,4.645,2.765l0.829,0.351
				c1.985,0.841,2.064,0.758,2.385,0.42c0.562-0.603,1.503-3.971,2.008-7.215c0.203-1.038,1.086-2.371,2.927-2.974l74.317-24.577
				l0,0c-0.027,0,1.362-0.604,2.667-0.491c0.365-0.071,3.215-0.154,5.065,1.109c0.591,0.408,3.665,1.193,5.447,0.562
				c0.659-0.253,0.759-0.576,0.8-0.729c1.053-3.721,1.136-5.18,1.082-5.727c-0.563-0.098-1.614-0.141-2.232-0.156
				c-1.532-0.056-2.444-0.097-3.144-0.491l1.741-3.144c0.238-0.027,0.954,0.029,1.515,0.043c1.838,0.056,3.58,0.112,4.618,1.009
				c1.712,1.517,1.25,4.605-0.126,9.433c-0.406,1.474-1.459,2.556-3.032,3.129c-2.891,1.053-7.129,0.114-8.688-0.953
				c-0.632-0.421-2.091-0.591-2.962-0.491h-0.013c-0.841,0-1.446,0.253-1.459,0.253l-74.475,24.645
				c-0.456,0.141-0.553,0.338-0.553,0.338c-0.294,2.006-1.291,7.383-3.018,9.039C123.176,256.094,122.2,256.402,121.246,256.402z"/>
		</g>
		<g>
			<path fill="#FFFFFF" d="M118.685,246.284c-1.152-2.891-9.447-2.835-10.415-3.679c-0.982-0.869,0.112-3.186,1.094-6.707
				c0.982-3.511,7.551-2.149,8.983-1.167c1.432,0.985,3.973,1.109,5.544,0.605l74.938-24.789c1.5-0.503,1.712-1.544,1.712-1.544
				s1.065-6.848,2.541-8.245c1.474-1.403,2.889-0.485,5.136,0.442c2.247,0.912,6.989,3.509,5.824,5.011
				c-1.165,1.5-3.901,3.101-3.283,6.639"/>
			<path d="M117.014,246.943c-0.385-0.968-4.709-1.656-6.126-1.867c-2.141-0.351-3.109-0.519-3.797-1.109
				c-1.635-1.459-0.962-3.621-0.112-6.357c0.203-0.673,0.435-1.405,0.653-2.19c0.412-1.488,1.465-2.568,3.032-3.13
				c2.856-1.039,7.129-0.097,8.701,0.956c0.841,0.588,2.759,0.771,3.979,0.377l74.922-24.786c0.45-0.141,0.562-0.336,0.562-0.35
				c0.28-1.994,1.291-7.391,3.018-9.033c2.133-2.062,4.406-1.044,6.245-0.259l0.814,0.344c0.632,0.259,6.259,2.618,7.018,5.438
				c0.224,0.827,0.056,1.671-0.464,2.33c-0.294,0.394-0.671,0.771-1.08,1.194c-1.347,1.362-2.147,2.315-1.853,4.042l-3.538,0.617
				c-0.645-3.677,1.532-5.882,2.835-7.2c0.128-0.112,0.24-0.238,0.353-0.35c-0.759-0.744-2.709-1.965-4.632-2.738l-0.871-0.379
				c-1.965-0.827-2.021-0.715-2.356-0.435c-0.562,0.618-1.503,3.987-2.008,7.229c-0.197,1.024-1.08,2.344-2.906,2.962l-74.95,24.801
				c-1.971,0.618-5.124,0.533-7.124-0.829c-0.583-0.406-3.691-1.192-5.445-0.547c-0.661,0.239-0.744,0.562-0.786,0.715
				c-0.232,0.829-0.47,1.587-0.688,2.288c-0.273,0.885-0.605,1.938-0.703,2.541c0.485,0.1,1.179,0.211,1.741,0.309
				c3.459,0.547,7.762,1.221,8.906,4.097L117.014,246.943z"/>
		</g>
	</g>
	<path d="M264.753,55.363c0,0,36.31,52.375,14.372,76.376c-21.937,23.992-56.031,33.025-81.673,8.715
		c-25.642-24.31-37.798-55.469-18.218-79.161C198.799,37.601,245.509,33.86,264.753,55.363z"/>
	<g>
		<path fill="#73CDDD" d="M238.409,19.102C221.564,7.116,169.689,1.55,153.83,1.803c-11.103,0.176-40.157,2.73-62.361,8.352
			c37.377,12.499,149.102,51.98,202.212,70.783C285.722,48.76,254.042,30.225,238.409,19.102z"/>
		<path d="M293.078,82.628C219.446,56.563,124.608,23.13,90.901,11.86l0.126-3.446c23.369-5.916,52.893-8.253,62.773-8.407L154.91,0
			c16.456,0,67.372,5.425,84.537,17.636c1.671,1.193,3.536,2.471,5.53,3.838c17.194,11.804,43.187,29.651,50.443,59.034
			L293.078,82.628z M98.01,10.463c37.328,12.646,123.863,43.153,193.018,67.63c-8.015-26.148-32.001-42.613-48.086-53.658
			c-2.006-1.382-3.888-2.667-5.571-3.866C221.635,9.368,172.439,3.593,154.91,3.593L153.856,3.6
			C144.953,3.741,119.862,5.677,98.01,10.463z"/>
	</g>
	<path fill="#FFFFFF" d="M151.092,16.772c-1.712-0.954-2.918-1.312-3.901-1.874c0.729-1.838,1.207-4.147-0.45-2.779
		c-0.533,0.442-0.956,0.849-1.333,1.228c-1.067-1.031-2.288-0.421-2.415,1.018c0,0-0.729,0.835-1.25,1.621
		c-1.67,0.632-1.206,1.847,0.603,2.218c0,0,3.565,3.025,3.173,1.67c-0.323-1.01-0.07-1.726,0.392-2.54
		C147.738,17.839,153.703,18.239,151.092,16.772z"/>
	<path fill="#FFFFFF" d="M178.448,24.302c-1.727-0.968-2.947-1.333-3.916-1.887c0.757-1.832,1.233-4.154-0.435-2.772
		c-0.564,0.442-0.97,0.849-1.335,1.213c-1.053-1.018-2.3-0.413-2.4,1.032c0,0-0.729,0.835-1.277,1.614
		c-1.656,0.639-1.179,1.846,0.632,2.232c0,0,3.536,3.018,3.157,1.664c-0.309-1.012-0.098-1.734,0.379-2.541
		C175.107,25.348,181.058,25.763,178.448,24.302z"/>
	<path fill="#FFFFFF" d="M202.955,32.815c-1.714-0.968-2.92-1.326-3.888-1.882c0.729-1.831,1.206-4.161-0.479-2.778
		c-0.533,0.449-0.938,0.856-1.304,1.228c-1.067-1.031-2.302-0.428-2.443,1.012c0,0-0.701,0.848-1.248,1.621
		c-1.656,0.645-1.165,1.853,0.603,2.232c0,0,3.579,3.018,3.173,1.663c-0.311-1.009-0.058-1.727,0.406-2.541
		C199.599,33.869,205.564,34.283,202.955,32.815z"/>
	<path fill="#FFFFFF" d="M226.576,41.328c-1.712-0.961-2.947-1.326-3.917-1.88c0.732-1.832,1.223-4.149-0.435-2.773
		c-0.56,0.45-0.968,0.856-1.333,1.221c-1.053-1.024-2.303-0.427-2.427,1.018c0,0-0.703,0.844-1.235,1.621
		c-1.699,0.64-1.194,1.847,0.603,2.232c0,0,3.551,3.012,3.145,1.665c-0.294-1.018-0.071-1.735,0.406-2.549
		C223.221,42.381,229.173,42.795,226.576,41.328z"/>
	<path fill="#FFFFFF" d="M250.253,51.272c-1.727-0.961-2.933-1.32-3.9-1.88c0.742-1.826,1.221-4.149-0.45-2.765
		c-0.533,0.441-0.968,0.841-1.333,1.221c-1.041-1.026-2.317-0.429-2.415,1.018c0,0-0.731,0.842-1.25,1.621
		c-1.671,0.638-1.194,1.844,0.588,2.217c0,0,3.565,3.024,3.2,1.663c-0.307-1.003-0.098-1.718,0.365-2.533
		C246.9,52.331,252.865,52.746,250.253,51.272z"/>
	<path fill="#FFFFFF" d="M272.571,59.792c-1.727-0.961-2.935-1.326-3.917-1.888c0.729-1.826,1.223-4.141-0.436-2.758
		c-0.547,0.441-0.982,0.841-1.333,1.214c-1.053-1.032-2.303-0.429-2.427,1.018c0,0-0.703,0.842-1.223,1.621
		c-1.67,0.638-1.206,1.847,0.591,2.224c0,0,3.55,3.018,3.157,1.656c-0.294-1.003-0.071-1.718,0.394-2.527
		C269.216,60.846,275.167,61.252,272.571,59.792z"/>
	<path fill="#FFFFFF" d="M196.287,17.033c-1.712-0.962-2.947-1.32-3.903-1.874c0.731-1.833,1.208-4.156-0.448-2.773
		c-0.549,0.436-0.956,0.843-1.334,1.222c-1.065-1.04-2.286-0.428-2.415,1.018c0,0-0.729,0.842-1.262,1.621
		c-1.67,0.638-1.191,1.846,0.604,2.218c0,0,3.579,3.025,3.173,1.663c-0.309-1.003-0.07-1.719,0.406-2.526
		C192.934,18.099,198.898,18.499,196.287,17.033z"/>
	<path fill="#FFFFFF" d="M221.046,25.299c-1.712-0.969-2.92-1.334-3.874-1.888c0.729-1.838,1.206-4.147-0.45-2.772
		c-0.562,0.442-0.968,0.85-1.348,1.214c-1.067-1.025-2.302-0.415-2.429,1.032c0,0-0.701,0.834-1.235,1.613
		c-1.67,0.639-1.192,1.839,0.605,2.225c0,0,3.578,3.024,3.157,1.67c-0.309-1.011-0.085-1.733,0.421-2.541
		C217.72,26.345,223.656,26.752,221.046,25.299z"/>
	<path fill="#FFFFFF" d="M244.765,34.648c-1.724-0.97-2.947-1.32-3.93-1.882c0.744-1.824,1.221-4.147-0.447-2.771
		c-0.535,0.441-0.956,0.848-1.335,1.227c-1.053-1.024-2.288-0.427-2.4,1.012c0,0-0.73,0.848-1.248,1.627
		c-1.685,0.632-1.208,1.847,0.589,2.218c0,0,3.565,3.026,3.171,1.664c-0.309-1.003-0.07-1.72,0.394-2.535
		C241.383,35.707,247.348,36.122,244.765,34.648z"/>
	<path fill="#FFFFFF" d="M173.942,10c-1.698-0.968-2.92-1.327-3.903-1.874c0.744-1.838,1.235-4.162-0.462-2.779
		c-0.533,0.443-0.941,0.85-1.333,1.221c-1.026-1.023-2.276-0.427-2.4,1.018c0,0-0.717,0.842-1.25,1.622
		c-1.656,0.638-1.179,1.846,0.603,2.225c0,0,3.55,3.018,3.171,1.662c-0.307-1.01-0.083-1.727,0.379-2.54
		C170.601,11.061,176.566,11.468,173.942,10z"/>
	<path fill="#FFFFFF" d="M304.052,68.305c-1.727-0.961-2.947-1.32-3.903-1.874c0.746-1.838,1.223-4.155-0.448-2.773
		c-0.547,0.435-0.97,0.843-1.334,1.221c-1.065-1.039-2.315-0.427-2.427,1.018c0,0-0.715,0.844-1.25,1.615
		c-1.671,0.638-1.177,1.847,0.618,2.226c0,0,3.552,3.024,3.144,1.663c-0.28-1.003-0.071-1.72,0.408-2.541
		C300.699,69.372,306.649,69.764,304.052,68.305z"/>
	<path fill="#FFFFFF" d="M44.941,105.344c0,5.959-5.165,10.794-11.523,10.794c-6.359,0-11.524-4.835-11.524-10.794
		c0-5.958,5.165-10.814,11.524-10.814C39.776,94.53,44.941,99.386,44.941,105.344z"/>
	<path fill="#FFFFFF" d="M210.14,110.13c0,5.965-5.165,10.794-11.523,10.794s-11.509-4.829-11.509-10.794
		c0-5.958,5.15-10.806,11.509-10.806S210.14,104.171,210.14,110.13z"/>
</g>
</svg>
