<?xml version="1.0" encoding="utf-8"?>
<!-- Generator: Adobe Illustrator 15.1.0, SVG Export Plug-In . SVG Version: 6.00 Build 0)  -->
<!DOCTYPE svg PUBLIC "-//W3C//DTD SVG 1.0//EN" "http://www.w3.org/TR/2001/REC-SVG-20010904/DTD/svg10.dtd">
<svg version="1.0" id="Layer_1" xmlns="http://www.w3.org/2000/svg" xmlns:xlink="http://www.w3.org/1999/xlink" x="0px" y="0px"
	 width="359.688px" height="328.872px" viewBox="0 0 359.688 328.872" enable-background="new 0 0 359.688 328.872"
	 xml:space="preserve">
<g>
	<path fill="#73CDDD" d="M272.941,50.202c0,0,26.612-21.915,48.933-4.802c19.349,14.827,6.913,43.997,35.179,40.632
		c-2.721,7.845-48.779,22.686-66.108,10.368C273.615,84.083,272.941,50.202,272.941,50.202z"/>
	<path d="M310.181,102.906c-8.749,0-15.563-1.697-20.274-5.041c-17.862-12.696-18.732-46.206-18.76-47.629l-0.014-0.869l0.673-0.554
		c0.575-0.477,14.441-11.743,30.93-11.743c7.445,0,14.259,2.321,20.232,6.905c8.539,6.548,11.188,15.591,13.516,23.576
		c3.183,10.908,5.51,18.375,20.358,16.699l2.847-0.343l-0.939,2.713C356.211,93.925,329.432,102.906,310.181,102.906z
		 M274.778,51.057c0.252,5.342,2.341,33.313,17.204,43.878c4.038,2.867,10.319,4.381,18.199,4.381
		c16.615,0,35.613-6.506,42.539-11.224c-13.993-0.049-16.754-9.513-19.685-19.531c-2.285-7.823-4.641-15.906-12.254-21.739
		c-5.328-4.087-11.399-6.162-18.045-6.162C289.5,40.66,277.695,48.862,274.778,51.057z"/>
</g>
<g>
	<path fill="#73CDDD" d="M273.601,56.847c0,0,17.989-11.49,23.555-6.232c5.58,5.244,3.575,9.19,6.772,11.819
		c3.197,2.615,9.198,6.225,4.402,11.476c-4.809,5.265-30.762,6.94-30.762,6.94L273.601,56.847z"/>
	<path d="M276.068,82.744l-4.431-26.772l0.996-0.638c0.504-0.322,12.45-7.887,20.316-7.887c2.299,0,4.122,0.624,5.44,1.865
		c3.505,3.288,4.36,6.26,4.991,8.434c0.477,1.647,0.771,2.545,1.683,3.302l1.065,0.834c2.439,1.907,5.482,4.27,5.763,7.662
		c0.168,1.9-0.589,3.772-2.229,5.581c-5.16,5.636-29.248,7.34-31.981,7.515L276.068,82.744z M275.563,57.745l3.505,21.2
		c9.885-0.764,24.957-2.987,27.929-6.247c0.968-1.044,1.388-1.977,1.318-2.846c-0.154-1.83-2.509-3.667-4.402-5.139l-1.122-0.89
		c-1.823-1.5-2.355-3.323-2.86-5.083c-0.603-2.061-1.22-4.199-4.01-6.814c-0.617-0.596-1.626-0.891-2.973-0.891
		C287.299,51.036,278.522,55.985,275.563,57.745z"/>
</g>
<path fill="#FFFFFF" d="M323.697,61.012c-1.696-0.96-2.916-1.332-3.87-1.879c0.715-1.837,1.206-4.15-0.462-2.769
	c-0.547,0.441-0.954,0.848-1.318,1.213c-1.065-1.024-2.313-0.421-2.439,1.03c0,0-0.701,0.827-1.248,1.605
	c-1.654,0.645-1.178,1.844,0.603,2.229c0,0,3.562,3.007,3.169,1.668c-0.294-1.024-0.07-1.739,0.393-2.545
	C320.36,62.063,326.333,62.47,323.697,61.012z"/>
<path fill="#FFFFFF" d="M312.032,87.553c-1.725-0.96-2.917-1.325-3.898-1.878c0.729-1.83,1.22-4.15-0.435-2.769
	c-0.575,0.441-0.981,0.848-1.346,1.22c-1.065-1.023-2.299-0.428-2.425,1.017c0,0-0.701,0.841-1.248,1.619
	c-1.668,0.638-1.178,1.844,0.617,2.222c0,0,3.561,3.015,3.141,1.662c-0.294-1.009-0.07-1.725,0.42-2.538
	C308.695,88.604,314.625,89.018,312.032,87.553z"/>
<path fill="#FFFFFF" d="M331.464,80.781c-1.71-0.967-2.93-1.325-3.897-1.878c0.729-1.83,1.22-4.15-0.449-2.776
	c-0.561,0.449-0.954,0.855-1.332,1.234c-1.065-1.038-2.299-0.428-2.426,1.009c0,0-0.715,0.841-1.248,1.626
	c-1.668,0.631-1.178,1.837,0.617,2.215c0,0,3.562,3.021,3.155,1.662c-0.309-1.002-0.07-1.718,0.407-2.538
	C328.127,81.833,334.059,82.246,331.464,80.781z"/>
<g>
	<path fill="#FFFFFF" d="M132.649,181.282v10.389c0,0,1.094,10.551,7.445,10.551c6.337,0,9.604-2.341,9.786-6.534
		c0.196-4.185,0.912-20.772,0.912-20.772h-18.143V181.282z"/>
	<path d="M140.095,204.017c-7.88,0-9.177-11.665-9.233-12.163l-0.007-18.731h21.809l-0.077,1.872c0,0-0.715,16.594-0.911,20.779
		C151.542,198.85,149.86,204.017,140.095,204.017z M134.444,191.671c0.014,0,1.093,8.756,5.65,8.756
		c7.781,0,7.942-3.624,7.992-4.816c0.154-3.323,0.638-14.441,0.834-18.9h-14.476V191.671L134.444,191.671z"/>
</g>
<g>
	<path fill="#FFFFFF" d="M167.855,181.282v10.389c0,0-1.093,10.551-7.459,10.551c-6.323,0-9.604-2.341-9.786-6.534
		c-0.183-4.185-0.912-20.772-0.912-20.772h18.157V181.282z"/>
	<path d="M160.396,204.017c-9.765,0-11.448-5.167-11.581-8.251l-0.996-22.644h21.831v18.549
		C169.587,192.352,168.291,204.017,160.396,204.017z M151.57,176.711l0.834,18.9c0.049,1.192,0.21,4.816,7.992,4.816
		c4.592,0,5.665-8.854,5.671-8.945l-0.007-14.771H151.57z"/>
</g>
<g>
	<path fill="#FFFFFF" d="M150.54,4.466c-16.531,0.294-71.142,6.225-88.667,20.246C44.36,38.718,7.43,62.736,2.859,105.899
		c-1.641,15.255-2.93,34.309,8.497,44.278c11.427,9.962,57.934,35.494,78.502,27.705c20.555-7.774,27.285-30.825,34.379-25.532
		c7.081,5.307,7.753,14.953,7.753,14.953h36.524c0,0,0.673-9.646,7.753-14.953c7.095-5.293,13.825,17.757,34.379,25.532
		c20.555,7.789,67.076-17.743,78.503-27.705c11.427-9.969,10.137-29.023,8.497-44.278c-4.571-43.163-41.502-67.181-59.014-81.187
		C221.107,10.691,167.042,4.164,150.54,4.466z"/>
	<path d="M219.775,181.135L219.775,181.135c-3.729,0-7.011-0.533-9.759-1.577c-11.203-4.234-18.423-12.794-23.709-19.041
		c-3.099-3.68-6.029-7.15-7.88-7.15c-0.224,0-0.575,0.042-1.086,0.42c-6.31,4.732-7.031,13.558-7.039,13.643l-0.119,1.668h-39.861
		l-0.119-1.668c-0.007-0.084-0.729-8.911-7.045-13.643c-0.504-0.378-0.855-0.42-1.08-0.42c-1.851,0-4.781,3.47-7.887,7.15
		c-5.271,6.247-12.492,14.806-23.695,19.041c-2.755,1.044-6.043,1.577-9.773,1.577c-23.765,0-60.696-21.017-70.545-29.605
		c-11.833-10.326-10.908-29.065-9.106-45.82c4.192-39.56,35.276-63.528,53.847-77.851c2.11-1.626,4.066-3.141,5.833-4.55
		C79.265,8.497,136.084,2.93,150.505,2.671l1.178-0.007c17.147,0,70.195,6.344,88.072,20.646c1.767,1.409,3.729,2.923,5.833,4.55
		c18.578,14.322,49.648,38.291,53.84,77.851c1.809,16.755,2.734,35.494-9.099,45.82
		C280.471,160.118,243.554,181.135,219.775,181.135z M178.427,149.777c3.52,0,6.506,3.533,10.628,8.426
		c5.02,5.945,11.89,14.091,22.223,18.003c2.355,0.883,5.202,1.339,8.497,1.339c21.928,0,58.13-19.952,68.197-28.722
		c10.529-9.19,9.59-26.878,7.894-42.735c-4.038-38.031-34.351-61.418-52.466-75.39c-2.131-1.634-4.108-3.162-5.889-4.585
		c-16.376-13.103-67.581-19.86-85.829-19.86l-1.107,0.007c-18.276,0.323-71.149,6.709-87.581,19.854
		c-1.781,1.423-3.758,2.951-5.882,4.585C38.99,44.67,8.67,68.057,4.646,106.088c-1.71,15.857-2.643,33.545,7.887,42.735
		c10.067,8.77,46.262,28.722,68.19,28.722c3.295,0,6.155-0.456,8.497-1.339c10.333-3.912,17.21-12.058,22.23-18.003
		c4.122-4.893,7.108-8.426,10.627-8.426c1.136,0,2.222,0.378,3.232,1.136c5.889,4.409,7.711,11.406,8.251,14.596h33.384
		c0.54-3.19,2.362-10.187,8.244-14.596C176.205,150.156,177.292,149.777,178.427,149.777z"/>
</g>
<path d="M32.737,55.305c0,0-36.272,52.318-14.357,76.294c21.915,23.969,55.971,32.991,81.587,8.707
	c25.616-24.284,37.758-55.41,18.199-79.077C98.621,37.562,51.959,33.825,32.737,55.305z"/>
<path d="M153.821,136.759c3.015,1.668,8.076,8.104,15.507,0c7.403-8.09-18.213-20.232-18.213-20.232c-2.257-1.149-3.771,0-3.771,0
	s-25.616,12.142-18.199,20.232c7.403,8.104,12.142,0.939,15.493,0C144.637,136.759,148.423,133.766,153.821,136.759z"/>
<g>
	<g>
		<path fill="#FFFFFF" d="M102.981,213.327c-1.71,3.168-4.837,2.748-6.674,3.21c-1.851,0.463,0.294,5.426,1.514,7.529
			c1.192,2.103,1.752,3.702,3.771,3.505c2.033-0.196,7.066-4.949,7.066-4.949s0.813-0.687,2.3-0.154l73.637,26.261
			c0,0,1.009,0.252,1.907,0.968c0,0,2.187,1.472,2.72,3.126c0.533,1.654,4.851,6.758,7.795,4.585c2.93-2.159,5.44-4.263,5.188-5.552
			c-0.238-1.262-3.701-3.337-4.08-4.234"/>
		<path d="M195.42,259.735c-0.533,0-1.08-0.084-1.64-0.266c-2.888-0.939-5.679-4.291-6.268-6.099
			c-0.238-0.743-1.43-1.795-2.005-2.188c-0.687-0.533-1.36-0.715-1.36-0.715l-73.792-26.303c-0.456-0.182-0.652-0.056-0.673-0.07
			c-1.438,1.388-5.531,5.033-7.915,5.258c-0.182,0.028-0.351,0.028-0.512,0.028c-2.573,0-3.681-2.033-4.585-3.673l-0.414-0.757
			c-0.336-0.575-3.337-5.889-2.201-8.595c0.344-0.799,0.981-1.346,1.816-1.556c0.456-0.112,0.988-0.196,1.563-0.267
			c1.907-0.238,3.127-0.504,3.968-2.061l3.154,1.71c-1.773,3.281-4.837,3.674-6.667,3.912c-0.175,0.028-0.337,0.042-0.498,0.07
			c0.147,1.038,0.939,3.211,1.977,5.006l0.456,0.813c1.031,1.879,1.157,1.823,1.591,1.809c0.813-0.14,3.625-2.229,6.008-4.473
			c0.807-0.687,2.313-1.206,4.136-0.533l73.637,26.247l0,0c0.028,0,1.276,0.351,2.426,1.262c0.336,0.21,2.622,1.837,3.309,3.982
			c0.21,0.673,2.173,3.197,3.954,3.771c0.603,0.21,0.939,0.014,1.066-0.084c3.084-2.271,4.066-3.351,4.375-3.828
			c-0.379-0.435-1.192-1.108-1.669-1.5c-1.191-0.981-1.865-1.57-2.187-2.313l3.309-1.402c0.07,0.042,0.729,0.589,1.164,0.954
			c1.416,1.178,2.762,2.285,3.028,3.645c0.421,2.202-1.738,4.276-5.889,7.333C197.285,259.441,196.388,259.735,195.42,259.735z"/>
	</g>
	<g>
		<path fill="#FFFFFF" d="M102.673,218.935c-0.252-5.356-5.622-7.024-5.875-8.3c-0.238-1.276,2.257-3.393,5.202-5.552
			c2.93-2.159,7.263,2.944,7.795,4.599c0.519,1.654,2.72,3.141,2.72,3.141s-0.28,0.168,1.276,0.729l74.268,26.5
			c1.486,0.519,2.286-0.168,2.286-0.168s5.047-4.739,7.066-4.935c2.033-0.21,2.594,1.374,3.786,3.491
			c1.206,2.103,3.351,7.066,1.514,7.529c-1.851,0.463-4.978,0.042-6.674,3.211"/>
		<path d="M197.622,250.019l-3.169-1.683c1.767-3.309,4.725-3.673,6.674-3.926c0.168-0.028,0.323-0.042,0.491-0.07
			c-0.154-1.038-0.939-3.211-1.977-5.006l-0.435-0.799c-1.009-1.865-1.136-1.795-1.612-1.809c-0.813,0.14-3.631,2.229-6.015,4.458
			c-0.813,0.687-2.257,1.178-4.108,0.561l-74.282-26.499c-0.715-0.267-1.612-0.589-2.11-1.248c-0.834-0.631-2.454-2.047-2.994-3.786
			c-0.217-0.659-2.173-3.197-3.961-3.771c-0.659-0.21-0.925,0-1.059,0.084c-2.825,2.075-3.884,3.155-4.283,3.688
			c0.175,0.14,0.364,0.28,0.533,0.407c1.725,1.304,4.936,3.715,5.153,8.23l-3.589,0.168c-0.133-2.832-2.125-4.318-3.723-5.524
			c-1.023-0.771-1.907-1.444-2.117-2.509c-0.414-2.229,1.851-4.375,5.903-7.347c1.227-0.925,2.706-1.107,4.283-0.603
			c2.896,0.926,5.7,4.291,6.281,6.099c0.239,0.757,1.43,1.809,2.012,2.201l0.666,0.449c0.07,0.028,0.14,0.056,0.217,0.084
			l74.261,26.485c0.42,0.154,0.659,0.084,0.645,0.07c1.458-1.402,5.552-5.034,7.936-5.258c2.917-0.463,4.165,1.893,5.118,3.66
			l0.407,0.729c0.336,0.589,3.309,5.931,2.187,8.595c-0.336,0.799-0.981,1.346-1.809,1.556c-0.462,0.112-0.996,0.196-1.57,0.267
			C199.669,248.21,198.449,248.477,197.622,250.019z"/>
	</g>
</g>
<g>
	<g>
		<path fill="#FFFFFF" d="M115.082,241.564c0.617,3.533-2.117,5.132-3.281,6.618c-1.178,1.486,3.562,4.094,5.819,5.02
			c2.243,0.925,3.659,1.823,5.132,0.421c1.472-1.402,2.538-8.23,2.538-8.23s0.21-1.051,1.71-1.542l74.24-24.551
			c0,0,0.939-0.42,2.075-0.406c0,0,2.65-0.183,4.08,0.799s7.992,2.355,8.973-1.178c0.996-3.505,1.654-6.702,0.673-7.571
			c-0.967-0.841-4.963-0.364-5.818-0.841"/>
		<path d="M121.117,256.132c-1.213,0-2.383-0.505-3.414-0.939l-0.771-0.336c-0.638-0.252-6.281-2.65-7.018-5.454
			c-0.217-0.841-0.049-1.668,0.477-2.328c0.287-0.365,0.659-0.757,1.065-1.164c1.353-1.36,2.159-2.313,1.858-4.038l3.533-0.617
			c0.645,3.688-1.542,5.875-2.846,7.193c-0.119,0.112-0.231,0.224-0.344,0.336c0.764,0.743,2.72,1.963,4.641,2.762l0.827,0.351
			c1.984,0.841,2.061,0.757,2.383,0.42c0.561-0.603,1.5-3.968,2.005-7.207c0.204-1.038,1.087-2.37,2.923-2.973l74.24-24.55l0,0
			c-0.028,0,1.36-0.603,2.664-0.491c0.365-0.07,3.211-0.154,5.062,1.108c0.589,0.406,3.66,1.191,5.44,0.561
			c0.659-0.252,0.757-0.575,0.799-0.729c1.052-3.715,1.136-5.174,1.08-5.721c-0.561-0.098-1.612-0.14-2.229-0.154
			c-1.528-0.056-2.44-0.098-3.141-0.491l1.739-3.141c0.238-0.028,0.954,0.028,1.514,0.042c1.837,0.056,3.575,0.112,4.613,1.009
			c1.711,1.514,1.248,4.599-0.126,9.422c-0.407,1.472-1.458,2.552-3.028,3.127c-2.889,1.051-7.123,0.112-8.679-0.954
			c-0.631-0.42-2.089-0.589-2.958-0.491h-0.014c-0.841,0-1.444,0.252-1.458,0.252l-74.394,24.621
			c-0.456,0.14-0.554,0.336-0.554,0.336c-0.294,2.005-1.29,7.375-3.014,9.029C123.045,255.824,122.071,256.132,121.117,256.132z"/>
	</g>
	<g>
		<path fill="#FFFFFF" d="M118.559,246.023c-1.15-2.888-9.436-2.832-10.403-3.673c-0.981-0.869,0.112-3.183,1.093-6.702
			c0.981-3.505,7.543-2.146,8.974-1.164s3.968,1.108,5.538,0.603l74.857-24.761c1.5-0.505,1.711-1.542,1.711-1.542
			s1.065-6.842,2.538-8.237c1.472-1.402,2.888-0.484,5.131,0.441c2.244,0.911,6.982,3.505,5.819,5.005
			c-1.164,1.5-3.898,3.099-3.281,6.632"/>
		<path d="M116.89,246.682c-0.386-0.967-4.704-1.654-6.12-1.865c-2.138-0.351-3.105-0.519-3.792-1.108
			c-1.634-1.458-0.96-3.617-0.112-6.351c0.203-0.673,0.435-1.402,0.652-2.188c0.414-1.486,1.465-2.566,3.028-3.126
			c2.854-1.038,7.123-0.098,8.693,0.953c0.841,0.589,2.755,0.771,3.975,0.379l74.843-24.761c0.449-0.14,0.561-0.336,0.561-0.351
			c0.281-1.991,1.29-7.382,3.015-9.022c2.131-2.061,4.402-1.044,6.239-0.259l0.813,0.343c0.631,0.26,6.253,2.615,7.011,5.433
			c0.224,0.827,0.056,1.668-0.463,2.328c-0.294,0.393-0.673,0.771-1.08,1.192c-1.346,1.36-2.145,2.313-1.851,4.038l-3.533,0.617
			c-0.645-3.673,1.528-5.875,2.832-7.193c0.126-0.112,0.238-0.238,0.351-0.351c-0.757-0.743-2.706-1.963-4.627-2.734l-0.869-0.378
			c-1.963-0.827-2.019-0.715-2.355-0.435c-0.561,0.617-1.5,3.982-2.005,7.221c-0.196,1.023-1.08,2.341-2.902,2.958l-74.871,24.775
			c-1.97,0.617-5.118,0.533-7.116-0.827c-0.582-0.407-3.688-1.192-5.44-0.547c-0.659,0.238-0.743,0.561-0.785,0.715
			c-0.231,0.827-0.47,1.584-0.687,2.285c-0.273,0.883-0.603,1.935-0.701,2.538c0.484,0.098,1.178,0.21,1.738,0.309
			c3.457,0.547,7.754,1.22,8.896,4.094L116.89,246.682z"/>
	</g>
</g>
<path d="M264.473,55.305c0,0,36.272,52.318,14.357,76.294c-21.915,23.969-55.971,32.991-81.587,8.707
	c-25.616-24.284-37.758-55.41-18.199-79.077C198.589,37.562,245.25,33.825,264.473,55.305z"/>
<g>
	<path fill="#73CDDD" d="M238.156,19.083C221.331,7.108,169.51,1.549,153.667,1.802c-11.09,0.175-40.113,2.727-62.294,8.342
		C128.709,22.629,240.315,62.07,293.37,80.851C285.42,48.708,253.775,30.194,238.156,19.083z"/>
	<path d="M292.767,82.541C219.214,56.504,124.475,23.106,90.804,11.848l0.126-3.442c23.345-5.91,52.837-8.244,62.708-8.398
		L154.746,0c16.439,0,67.3,5.419,84.447,17.617c1.668,1.192,3.533,2.468,5.524,3.834c17.175,11.792,43.142,29.619,50.391,58.972
		L292.767,82.541z M97.906,10.453C135.194,23.085,221.64,53.56,290.72,78.012c-8.006-26.121-31.968-42.567-48.036-53.602
		c-2.005-1.381-3.884-2.664-5.566-3.863c-15.717-11.188-64.86-16.958-82.373-16.958l-1.051,0.007
		C144.798,3.736,119.736,5.671,97.906,10.453z"/>
</g>
<path fill="#FFFFFF" d="M150.933,16.755c-1.71-0.954-2.917-1.311-3.898-1.872c0.729-1.837,1.206-4.144-0.449-2.776
	c-0.533,0.442-0.953,0.848-1.332,1.227c-1.065-1.031-2.285-0.421-2.411,1.016c0,0-0.729,0.834-1.248,1.62
	c-1.668,0.631-1.206,1.844,0.603,2.215c0,0,3.561,3.021,3.168,1.668c-0.322-1.01-0.07-1.725,0.393-2.538
	C147.582,17.82,153.541,18.22,150.933,16.755z"/>
<path fill="#FFFFFF" d="M178.259,24.277c-1.725-0.967-2.944-1.332-3.912-1.886c0.757-1.83,1.234-4.15-0.435-2.769
	c-0.561,0.442-0.967,0.848-1.332,1.213c-1.051-1.017-2.299-0.414-2.397,1.03c0,0-0.729,0.834-1.276,1.613
	c-1.654,0.638-1.178,1.844,0.631,2.229c0,0,3.533,3.015,3.155,1.662c-0.309-1.01-0.098-1.731,0.378-2.538
	C174.922,25.322,180.867,25.735,178.259,24.277z"/>
<path fill="#FFFFFF" d="M202.739,32.781c-1.71-0.968-2.916-1.325-3.884-1.879c0.729-1.83,1.206-4.157-0.477-2.776
	c-0.533,0.448-0.939,0.855-1.304,1.227c-1.066-1.03-2.299-0.428-2.44,1.01c0,0-0.701,0.848-1.248,1.619
	c-1.655,0.645-1.164,1.851,0.603,2.229c0,0,3.576,3.014,3.169,1.661c-0.309-1.009-0.056-1.725,0.407-2.538
	C199.389,33.832,205.347,34.246,202.739,32.781z"/>
<path fill="#FFFFFF" d="M226.336,41.284c-1.71-0.96-2.944-1.325-3.912-1.879c0.729-1.83,1.22-4.143-0.435-2.769
	c-0.561,0.449-0.968,0.855-1.332,1.22c-1.052-1.023-2.3-0.427-2.426,1.017c0,0-0.701,0.841-1.234,1.62
	c-1.696,0.638-1.192,1.844,0.603,2.229c0,0,3.547,3.008,3.141,1.662c-0.294-1.017-0.07-1.731,0.407-2.545
	C222.985,42.336,228.93,42.75,226.336,41.284z"/>
<path fill="#FFFFFF" d="M249.99,51.218c-1.725-0.96-2.931-1.318-3.898-1.878c0.743-1.823,1.22-4.143-0.449-2.762
	c-0.533,0.441-0.967,0.841-1.332,1.22c-1.038-1.023-2.313-0.428-2.412,1.017c0,0-0.729,0.841-1.248,1.619
	c-1.668,0.638-1.192,1.844,0.589,2.215c0,0,3.561,3.021,3.197,1.662c-0.309-1.002-0.098-1.717,0.364-2.531
	C246.639,52.276,252.598,52.69,249.99,51.218z"/>
<path fill="#FFFFFF" d="M272.283,59.729c-1.725-0.96-2.93-1.325-3.912-1.886c0.729-1.823,1.22-4.136-0.435-2.755
	c-0.546,0.441-0.981,0.841-1.332,1.213c-1.051-1.031-2.299-0.428-2.425,1.016c0,0-0.701,0.841-1.22,1.62
	c-1.668,0.638-1.206,1.844,0.589,2.222c0,0,3.547,3.015,3.154,1.654c-0.294-1.002-0.07-1.717,0.393-2.523
	C268.932,60.78,274.876,61.187,272.283,59.729z"/>
<path fill="#FFFFFF" d="M196.08,17.014c-1.71-0.96-2.944-1.318-3.898-1.872c0.729-1.83,1.206-4.15-0.449-2.769
	c-0.546,0.435-0.953,0.841-1.332,1.22c-1.066-1.038-2.286-0.428-2.412,1.017c0,0-0.729,0.841-1.262,1.619
	c-1.668,0.638-1.191,1.844,0.603,2.215c0,0,3.575,3.021,3.169,1.662c-0.309-1.002-0.07-1.718,0.406-2.524
	C192.729,18.08,198.688,18.479,196.08,17.014z"/>
<path fill="#FFFFFF" d="M220.812,25.272c-1.711-0.967-2.917-1.332-3.87-1.886c0.729-1.837,1.206-4.143-0.449-2.769
	c-0.561,0.441-0.967,0.848-1.346,1.213c-1.065-1.024-2.299-0.414-2.426,1.03c0,0-0.701,0.834-1.234,1.612
	c-1.668,0.638-1.191,1.837,0.603,2.223c0,0,3.575,3.021,3.155,1.668c-0.309-1.01-0.084-1.732,0.42-2.538
	C217.489,26.317,223.42,26.724,220.812,25.272z"/>
<path fill="#FFFFFF" d="M244.507,34.61c-1.725-0.967-2.944-1.318-3.926-1.879c0.743-1.823,1.22-4.143-0.449-2.769
	c-0.533,0.442-0.953,0.848-1.332,1.227c-1.051-1.024-2.285-0.428-2.397,1.009c0,0-0.729,0.848-1.248,1.626
	c-1.683,0.631-1.206,1.844,0.589,2.215c0,0,3.561,3.021,3.168,1.662c-0.309-1.002-0.07-1.718,0.393-2.531
	C241.128,35.669,247.087,36.083,244.507,34.61z"/>
<path fill="#FFFFFF" d="M173.758,9.99c-1.696-0.967-2.916-1.325-3.897-1.872c0.743-1.837,1.234-4.157-0.463-2.776
	c-0.533,0.442-0.939,0.849-1.332,1.22c-1.023-1.023-2.271-0.427-2.397,1.017c0,0-0.715,0.841-1.248,1.62
	c-1.654,0.638-1.178,1.844,0.603,2.222c0,0,3.547,3.015,3.169,1.662c-0.309-1.01-0.084-1.725,0.378-2.538
	C170.421,11.048,176.38,11.455,173.758,9.99z"/>
<path fill="#FFFFFF" d="M303.731,68.232c-1.725-0.96-2.944-1.318-3.898-1.872c0.743-1.836,1.22-4.15-0.449-2.769
	c-0.547,0.435-0.967,0.841-1.332,1.22c-1.065-1.038-2.313-0.427-2.425,1.017c0,0-0.715,0.841-1.248,1.612
	c-1.668,0.638-1.178,1.844,0.617,2.223c0,0,3.547,3.021,3.141,1.661c-0.281-1.002-0.07-1.717,0.406-2.538
	C300.38,69.298,306.325,69.69,303.731,68.232z"/>
<path fill="#FFFFFF" d="M44.893,105.233c0,5.952-5.16,10.782-11.511,10.782c-6.352,0-11.511-4.83-11.511-10.782
	c0-5.952,5.16-10.803,11.511-10.803C39.733,94.43,44.893,99.281,44.893,105.233z"/>
<path fill="#FFFFFF" d="M209.918,110.014c0,5.959-5.16,10.782-11.511,10.782c-6.352,0-11.497-4.823-11.497-10.782
	c0-5.952,5.146-10.796,11.497-10.796C204.758,99.218,209.918,104.062,209.918,110.014z"/>
<g>
	<path d="M70.537,327.877c-4.557-5.034-10.768-12.928-16.208-19.545c-1.388-1.599-2.271-2.188-3.07-2.188
		c-0.491,0-0.981,0.112-1.57,0.309v10.964c0,6.506,0.785,7.108,7.108,7.712v2.552H34.77v-2.552c6.618-0.604,7.207-1.402,7.207-7.712
		v-46.633c0-6.534-0.491-7.123-6.52-7.613v-2.369c4.739-0.505,10.375-2.188,14.231-3.463v46.535
		c2.958-0.589,4.739-1.879,6.225-3.449c2.173-2.188,5.132-6.029,7.01-8.693c2.075-3.07,1.781-3.869-2.958-4.346v-2.58l20.148-0.897
		v2.481c-6.814,1.08-8.889,2.174-12.745,5.819c-2.468,2.481-4.249,4.458-8.497,9.394c1.879,2.973,11.959,14.624,15.311,18.087
		c3.463,3.758,6.127,5.229,9.885,5.44v2.552L70.537,327.877z"/>
	<path d="M116.806,328.872c-1.472,0-3.547-0.884-4.641-1.977c-1.29-1.29-1.879-2.664-2.37-4.347
		c-3.954,2.664-8.693,6.323-11.665,6.323c-7.011,0-11.848-5.818-11.848-12.044c0-4.852,2.566-7.907,8.006-9.786
		c5.917-1.978,13.137-4.655,15.311-6.422v-1.683c0-7.207-3.365-11.16-8.398-11.16c-1.879,0-3.365,0.687-4.444,1.879
		c-1.192,1.374-2.075,3.547-2.875,6.505c-0.491,1.599-1.472,2.271-2.86,2.271c-1.78,0-4.248-1.879-4.248-4.234
		c0-1.388,1.192-2.579,3.07-3.953c2.664-1.978,9.184-5.735,14.82-6.927c2.958,0,5.917,0.897,8.09,2.664
		c3.463,2.973,4.458,6.926,4.458,12.17v18.27c0,4.444,1.767,5.931,3.449,5.931c1.192,0,2.566-0.505,3.562-1.094l0.981,2.58
		L116.806,328.872z M109.599,303.985c-2.075,1.079-6.814,3.141-8.889,4.136c-3.855,1.781-6.029,3.659-6.029,7.305
		c0,5.048,3.954,7.516,7.01,7.516c2.566,0,6.029-1.683,7.908-3.562V303.985z"/>
	<path d="M156.064,327.681v-2.552c5.833-0.604,6.52-1.402,6.52-8.217v-16.488c0-6.814-2.37-11.272-8.987-11.272
		c-3.954,0-7.81,2.468-10.782,5.047v23.219c0,6.716,0.603,7.108,6.436,7.712v2.552h-21.452v-2.552
		c6.73-0.701,7.221-1.206,7.221-7.712v-20.358c0-6.323-0.589-6.716-5.931-7.711v-2.271c4.739-0.884,9.38-2.075,13.726-3.954v7.81
		c1.977-1.472,4.15-2.958,6.632-4.641c2.762-1.781,5.328-2.973,8.202-2.973c7.894,0,12.745,5.538,12.745,15.03v19.068
		c0,6.716,0.589,7.108,6.323,7.712v2.552H156.064z"/>
	<path d="M213.115,328.872c-1.472,0-3.547-0.884-4.641-1.977c-1.276-1.29-1.879-2.664-2.37-4.347
		c-3.954,2.664-8.693,6.323-11.666,6.323c-7.01,0-11.847-5.818-11.847-12.044c0-4.852,2.565-7.907,8.006-9.786
		c5.917-1.978,13.137-4.655,15.311-6.422v-1.683c0-7.207-3.365-11.16-8.398-11.16c-1.879,0-3.365,0.687-4.445,1.879
		c-1.191,1.374-2.075,3.547-2.874,6.505c-0.491,1.599-1.472,2.271-2.86,2.271c-1.781,0-4.248-1.879-4.248-4.234
		c0-1.388,1.191-2.579,3.07-3.953c2.664-1.978,9.184-5.735,14.82-6.927c2.958,0,5.917,0.897,8.09,2.664
		c3.463,2.973,4.444,6.926,4.444,12.17v18.27c0,4.444,1.781,5.931,3.463,5.931c1.191,0,2.566-0.505,3.561-1.094l0.981,2.58
		L213.115,328.872z M205.908,303.985c-2.075,1.079-6.814,3.141-8.889,4.136c-3.856,1.781-6.029,3.659-6.029,7.305
		c0,5.048,3.954,7.516,7.01,7.516c2.566,0,6.029-1.683,7.908-3.562V303.985z"/>
	<path d="M224.121,327.681v-2.552c6.226-0.604,7.109-1.206,7.109-7.712v-46.745c0-6.702-0.589-6.913-6.814-7.501v-2.369
		c5.132-0.589,11.259-2.271,14.624-3.463v60.079c0,6.506,0.785,7.108,7.108,7.712v2.552H224.121z"/>
	<path d="M250.803,327.681v-2.552c6.225-0.604,6.926-1.206,6.926-7.908v-20.358c0-6.127-0.294-6.617-6.225-7.515v-2.37
		c5.033-0.785,9.772-2.075,14.021-3.855v34.099c0,6.702,0.701,7.305,7.024,7.908v2.552H250.803z M256.046,269.69
		c0-2.973,2.37-5.132,5.034-5.132c2.776,0,4.949,2.159,4.949,5.132c0,2.664-2.173,5.047-5.047,5.047
		C258.416,274.737,256.046,272.354,256.046,269.69z"/>
</g>
</svg>
