<?xml version="1.0" encoding="utf-8"?>
<!-- Generator: Adobe Illustrator 21.1.0, SVG Export Plug-In . SVG Version: 6.00 Build 0)  -->
<svg version="1.1" id="Layer_1" xmlns="http://www.w3.org/2000/svg" xmlns:xlink="http://www.w3.org/1999/xlink" x="0px" y="0px"
	 viewBox="0 0 360.1 108.4" style="enable-background:new 0 0 360.1 108.4;" xml:space="preserve">
<g>
	<path d="M54.2,106.9c-6.9-7.6-16.3-19.6-24.6-29.6C27.6,74.9,26.2,74,25,74c-0.7,0-1.5,0.1-2.4,0.4V91c0,9.9,1.2,10.8,10.8,11.7
		v3.9H0v-3.9c10-0.9,10.9-2.1,10.9-11.7V20.4c0-9.9-0.7-10.8-9.9-11.5V5.2C8.2,4.5,16.8,1.9,22.6,0v70.5c4.5-0.9,7.2-2.8,9.4-5.2
		c3.3-3.3,7.8-9.1,10.6-13.2c3.1-4.6,2.7-5.8-4.5-6.6v-3.9l30.5-1.3V44c-10.3,1.6-13.5,3.3-19.3,8.8c-3.7,3.7-6.4,6.7-12.9,14.2
		c2.8,4.5,18.1,22.2,23.2,27.4c5.2,5.7,9.3,7.9,15,8.2v3.9L54.2,106.9z"/>
	<path d="M124.3,108.4c-2.2,0-5.4-1.3-7-3c-1.9-1.9-2.8-4-3.6-6.6c-6,4-13.2,9.6-17.7,9.6c-10.6,0-18-8.8-18-18.3
		c0-7.3,3.9-12,12.1-14.8c9-3,19.9-7,23.2-9.7V63c0-10.9-5.1-16.9-12.7-16.9c-2.8,0-5.1,1-6.7,2.8c-1.8,2.1-3.1,5.4-4.3,9.9
		c-0.7,2.4-2.2,3.4-4.3,3.4c-2.7,0-6.4-2.8-6.4-6.4c0-2.1,1.8-3.9,4.6-6c4-3,13.9-8.7,22.5-10.5c4.5,0,9,1.3,12.3,4
		c5.2,4.5,6.7,10.5,6.7,18.4v27.7c0,6.7,2.7,9,5.2,9c1.8,0,3.9-0.7,5.4-1.6l1.5,3.9L124.3,108.4z M113.3,70.7
		c-3.1,1.6-10.3,4.8-13.5,6.3c-5.8,2.7-9.1,5.5-9.1,11.1c0,7.6,6,11.4,10.6,11.4c3.9,0,9.1-2.5,12-5.4L113.3,70.7L113.3,70.7z"/>
	<path d="M183.7,106.6v-3.9c8.8-0.9,9.9-2.1,9.9-12.4v-25c0-10.3-3.6-17.1-13.6-17.1c-6,0-11.8,3.7-16.3,7.6V91
		c0,10.2,0.9,10.8,9.7,11.7v3.9h-32.5v-3.9c10.2-1,10.9-1.8,10.9-11.7V60.2c0-9.6-0.9-10.2-9-11.7v-3.4c7.2-1.3,14.2-3.1,20.8-6
		v11.8c3-2.2,6.3-4.5,10-7c4.2-2.7,8.1-4.5,12.4-4.5c12,0,19.3,8.4,19.3,22.8V91c0,10.2,0.9,10.8,9.6,11.7v3.9L183.7,106.6
		L183.7,106.6z"/>
	<path d="M270.1,108.4c-2.2,0-5.4-1.3-7-3c-1.9-1.9-2.8-4-3.6-6.6c-6,4-13.2,9.6-17.7,9.6c-10.6,0-18-8.8-18-18.3
		c0-7.3,3.9-12,12.1-14.8c9-3,19.9-7,23.2-9.7V63c0-10.9-5.1-16.9-12.7-16.9c-2.8,0-5.1,1-6.7,2.8c-1.8,2.1-3.1,5.4-4.3,9.9
		c-0.7,2.4-2.2,3.4-4.3,3.4c-2.7,0-6.4-2.8-6.4-6.4c0-2.1,1.8-3.9,4.6-6c4-3,13.9-8.7,22.5-10.5c4.5,0,9,1.3,12.3,4
		c5.2,4.5,6.7,10.5,6.7,18.4v27.7c0,6.7,2.7,9,5.2,9c1.8,0,3.9-0.7,5.4-1.6l1.5,3.9L270.1,108.4z M259.2,70.7
		c-3.1,1.6-10.3,4.8-13.5,6.3c-5.8,2.7-9.1,5.5-9.1,11.1c0,7.6,6,11.4,10.6,11.4c3.9,0,9.1-2.5,12-5.4L259.2,70.7L259.2,70.7z"/>
	<path d="M286.7,106.6v-3.9c9.4-0.9,10.8-1.8,10.8-11.7V20.2c0-10.2-0.9-10.5-10.3-11.4V5.2c7.8-0.9,17.1-3.4,22.2-5.2v91
		c0,9.9,1.2,10.8,10.8,11.7v3.9H286.7z"/>
	<path d="M327.1,106.6v-3.9c9.4-0.9,10.5-1.8,10.5-12V59.9c0-9.3-0.5-10-9.4-11.4v-3.6c7.6-1.2,14.8-3.1,21.3-5.8v51.7
		c0,10.2,1,11.1,10.6,12v3.9L327.1,106.6L327.1,106.6z M335.1,18.7c0-4.5,3.6-7.8,7.6-7.8c4.2,0,7.5,3.3,7.5,7.8
		c0,4-3.3,7.6-7.6,7.6C338.7,26.4,335.1,22.8,335.1,18.7z"/>
</g>
</svg>
